# xmcd
#
# Track frame offsets:
#	150
#	15830
#	30827
#	45337
#	58615
#	74105
#	90445
#	106455
#	122865
#	141020
#	159207
#	173642
#
# Disc length: 2485 seconds
#
# Revision: 1
# Processed by: cddbd v1.5.2PL0 Copyright (c) Steve Scherf et al.
# Submitted via: audiograbber 1.83.01
#
DISCID=8b09b30c
DTITLE=Tchê Garotos - Novo Rumo
DYEAR=1900
DGENRE=
TTITLE0=Enluarada
TTITLE1=Lidas
TTITLE2=Como Eu Poderia Imaginar
TTITLE3=Você Disse Que Não
TTITLE4=Vou Pro Rodeio
TTITLE5=Não Importa
TTITLE6=Vida de Campo
TTITLE7=Lã na Campanha
TTITLE8=Sonho ou Realidade
TTITLE9=Conheça o Rio Grande
TTITLE10=Pra Ela
TTITLE11=Compasso Fandangueiro
EXTD=
EXTT0=
EXTT1=
EXTT2=
EXTT3=
EXTT4=
EXTT5=
EXTT6=
EXTT7=
EXTT8=
EXTT9=
EXTT10=
EXTT11=
PLAYORDER=
